External Loads File
version=1
nRows=94
nColumns=13
Range=5.000000e-03-10 seconds
endheader
time 	forceRightX 	forceRightY 	forceRightZ 	pointRightX 	pointRightY 	pointRightZ 	forceLeftX 	forceLeftY 	forceLeftZ 	pointLeftX 	pointLeftY 	pointLeftZ 		
0.005000 37.477524 168.479312 -0.000000 0.351958 0.333541 -0.124246 40.748002 192.806083 -0.000000 0.020424 0.304403 -0.360302
0.010000 37.301546 169.093154 -0.000000 0.351952 0.333455 -0.124238 43.626789 193.113113 -0.000000 0.020419 0.304535 -0.360310
0.015000 37.116108 169.679632 -0.000000 0.351964 0.333350 -0.124224 46.272055 193.395621 -0.000000 0.020416 0.304665 -0.360316
0.020000 36.893813 170.219405 -0.000000 0.351951 0.333241 -0.124299 48.501231 193.637591 -0.000000 0.020392 0.304770 -0.360321
0.025000 36.506662 170.729747 -0.000000 0.351958 0.333338 -0.124271 50.185147 193.872489 -0.000000 0.021393 0.304911 -0.355966
0.030000 36.188925 171.163115 -0.000000 0.351950 0.333219 -0.124277 51.700931 194.043814 -0.000000 0.021929 0.305045 -0.354401
0.035000 35.933366 171.534365 -0.000000 0.351958 0.333072 -0.124264 53.143741 194.173035 -0.000000 0.020259 0.305208 -0.360242
0.040000 35.594807 171.892227 -0.000000 0.351970 0.332947 -0.124246 54.391927 194.329762 -0.000000 0.020221 0.305374 -0.360255
0.045000 35.272609 172.233754 -0.000000 0.351982 0.332818 -0.124265 55.527219 194.499551 -0.000000 0.020208 0.305520 -0.360247
0.050000 34.995439 172.568513 -0.000000 0.351995 0.332676 -0.124252 56.481493 194.672346 -0.000000 0.020176 0.305640 -0.360254
0.055000 34.799466 172.900908 -0.000000 0.351996 0.332529 -0.124241 57.178749 194.830830 -0.000000 0.020167 0.305773 -0.360254
0.060000 34.683640 173.233311 -0.000000 0.352002 0.332403 -0.124241 57.579754 194.982700 -0.000000 0.020137 0.305881 -0.360249
0.065000 34.673583 173.550681 -0.000000 0.351994 0.332308 -0.124242 57.777602 195.135604 -0.000000 0.020074 0.305981 -0.360211
0.070000 34.755971 173.843406 -0.000000 0.351979 0.332231 -0.124230 57.837930 195.299051 -0.000000 0.020035 0.306047 -0.360211
0.075000 34.916468 174.108024 -0.000000 0.351958 0.332153 -0.124237 57.780593 195.463103 -0.000000 0.020051 0.306100 -0.360210
0.080000 35.113797 174.348462 -0.000000 0.351909 0.332068 -0.124229 57.589289 195.618171 -0.000000 0.020116 0.306149 -0.360245
0.085000 35.284238 174.570736 -0.000000 0.351890 0.332032 -0.124229 57.259973 195.771398 -0.000000 0.020134 0.306190 -0.360274
0.090000 35.412984 174.771110 -0.000000 0.351863 0.332019 -0.124229 56.860812 195.928006 -0.000000 0.020157 0.306205 -0.360284
0.095000 35.531577 174.940830 -0.000000 0.351837 0.331992 -0.124243 56.491097 196.084141 -0.000000 0.020175 0.306219 -0.360295
0.100000 35.618197 175.086013 -0.000000 0.351792 0.331993 -0.124222 56.159906 196.250250 -0.000000 0.020192 0.306231 -0.360299
0.105000 35.667556 175.209523 -0.000000 0.351771 0.332009 -0.124221 55.862903 196.421878 -0.000000 0.020214 0.306217 -0.360309
0.110000 35.729362 175.304566 -0.000000 0.351763 0.332001 -0.124230 55.610908 196.569740 -0.000000 0.020234 0.306213 -0.360307
0.115000 35.783776 175.379223 -0.000000 0.351744 0.332036 -0.124224 55.316958 196.689708 -0.000000 0.020236 0.306204 -0.360259
0.120000 35.894385 175.411213 -0.000000 0.351744 0.332037 -0.124215 55.047073 196.760231 -0.000000 0.020253 0.306218 -0.360267
0.125000 35.983353 175.389267 -0.000000 0.351739 0.332046 -0.124236 54.794164 196.811289 -0.000000 0.020248 0.306190 -0.360278
0.130000 36.043623 175.292392 -0.000000 0.351773 0.332054 -0.124224 54.643320 196.851468 -0.000000 0.020249 0.306181 -0.360274
0.135000 36.016101 175.138032 -0.000000 0.351796 0.332057 -0.124231 54.545986 196.902736 -0.000000 0.020247 0.306160 -0.360270
0.140000 35.896812 174.957714 -0.000000 0.351817 0.332070 -0.124228 54.432756 196.968628 -0.000000 0.020229 0.306154 -0.360288
0.145000 35.681652 174.790665 -0.000000 0.351836 0.332092 -0.124216 54.232696 197.055616 -0.000000 0.020311 0.306123 -0.360349
0.150000 35.423755 174.658546 -0.000000 0.351849 0.332120 -0.124210 54.014931 197.155907 -0.000000 0.020292 0.306097 -0.360347
0.155000 35.116373 174.585021 -0.000000 0.351886 0.332171 -0.124224 53.844367 197.279801 -0.000000 0.020278 0.306049 -0.360353
0.160000 34.773698 174.578643 -0.000000 0.351909 0.332239 -0.124228 53.793150 197.430045 -0.000000 0.020254 0.305970 -0.360356
0.165000 34.433559 174.633401 -0.000000 0.351931 0.332337 -0.124221 53.888205 197.600390 -0.000000 0.020233 0.305900 -0.360338
0.170000 34.065805 174.751596 -0.000000 0.351938 0.332461 -0.124220 54.019724 197.798488 -0.000000 0.020226 0.305763 -0.360341
0.175000 33.695862 174.925114 -0.000000 0.351919 0.332626 -0.124222 54.138548 198.013221 -0.000000 0.020222 0.305624 -0.360338
0.180000 33.325123 175.154370 -0.000000 0.351900 0.332810 -0.124184 54.236663 198.252094 -0.000000 0.020219 0.305452 -0.360352
0.185000 32.993613 175.439590 -0.000000 0.351895 0.332989 -0.124193 54.421136 198.522880 -0.000000 0.020221 0.305269 -0.360362
0.190000 32.695947 175.799931 -0.000000 0.351876 0.333185 -0.124200 54.716958 198.852376 -0.000000 0.020188 0.305041 -0.360380
0.195000 32.474514 176.249829 -0.000000 0.351868 0.333405 -0.124209 55.101412 199.247926 -0.000000 0.020199 0.304810 -0.360384
0.200000 32.325945 176.803642 -0.000000 0.351814 0.333636 -0.124083 55.461103 199.716001 -0.000000 0.020212 0.304558 -0.360391
0.205000 32.221843 177.468370 -0.000000 0.351773 0.333884 -0.124052 55.716628 200.257613 -0.000000 0.020239 0.304284 -0.360381
0.210000 32.144800 178.242794 -0.000000 0.351718 0.334180 -0.124064 55.886897 200.869755 -0.000000 0.020296 0.304035 -0.360353
0.215000 32.098359 179.113789 -0.000000 0.351709 0.334456 -0.124292 56.053816 201.543526 -0.000000 0.020291 0.303749 -0.360376
0.220000 32.050339 180.058831 -0.000000 0.351666 0.334791 -0.124276 56.245273 202.271221 -0.000000 0.020256 0.303440 -0.360337
0.225000 32.013975 181.031457 -0.000000 0.351614 0.335143 -0.124021 56.504245 203.019801 -0.000000 0.020346 0.303088 -0.360364
0.230000 32.109155 181.957859 -0.000000 0.351588 0.335426 -0.124028 56.956054 203.718928 -0.000000 0.020363 0.302813 -0.360397
0.235000 32.225311 182.803316 -0.000000 0.351565 0.335693 -0.124065 57.433877 204.367562 -0.000000 0.020388 0.302515 -0.360409
0.240000 32.329081 183.521585 -0.000000 0.351594 0.335954 -0.124375 57.862706 204.937122 -0.000000 0.020425 0.302204 -0.360385
0.245000 32.346691 184.080270 -0.000000 0.351564 0.336270 -0.124393 58.192121 205.415267 -0.000000 0.020420 0.301907 -0.360380
0.250000 32.338365 184.438339 -0.000000 0.351539 0.336510 -0.124061 58.588135 205.763534 -0.000000 0.020322 0.301677 -0.360330
0.255000 32.165209 184.608842 -0.000000 0.351571 0.336776 -0.124081 58.972211 206.023861 -0.000000 0.020343 0.301422 -0.360323
0.260000 31.878080 184.591925 -0.000000 0.351588 0.337060 -0.124072 59.369019 206.186412 -0.000000 0.020298 0.301186 -0.360322
0.265000 31.495946 184.416778 -0.000000 0.351600 0.337347 -0.124053 59.664993 206.258974 -0.000000 0.020357 0.300899 -0.360420
0.270000 31.169185 184.103329 -0.000000 0.351620 0.337579 -0.124046 59.901405 206.213427 -0.000000 0.020344 0.300635 -0.360413
0.275000 30.896660 183.690599 -0.000000 0.351656 0.337814 -0.124069 60.058421 206.068510 -0.000000 0.020279 0.300388 -0.360373
0.280000 30.652860 183.208144 -0.000000 0.351677 0.338079 -0.124089 60.179438 205.844056 -0.000000 0.020279 0.300130 -0.360325
0.285000 30.448646 182.671596 -0.000000 0.351686 0.338363 -0.124110 60.355754 205.544136 -0.000000 0.020231 0.299860 -0.360320
0.290000 30.299171 182.094771 -0.000000 0.351676 0.338618 -0.124112 60.631002 205.178356 -0.000000 0.020230 0.299578 -0.360307
0.295000 30.206014 181.496854 -0.000000 0.351677 0.338887 -0.124070 60.963522 204.773494 -0.000000 0.020218 0.299335 -0.360328
0.300000 30.131576 180.905823 -0.000000 0.351705 0.339173 -0.124092 61.220574 204.373591 -0.000000 0.020229 0.299073 -0.360329
0.305000 30.072484 180.343374 -0.000000 0.351708 0.339474 -0.124104 61.333196 204.007457 -0.000000 0.020223 0.298804 -0.360301
0.310000 30.039281 179.824015 -0.000000 0.351695 0.339740 -0.124050 61.345072 203.693716 -0.000000 0.020226 0.298526 -0.360289
0.315000 30.004957 179.358756 -0.000000 0.351683 0.340000 -0.124083 61.312492 203.454421 -0.000000 0.020242 0.298254 -0.360260
0.320000 29.977408 178.944918 -0.000000 0.351680 0.340268 -0.124080 61.257608 203.284744 -0.000000 0.020247 0.298017 -0.360253
0.325000 29.965666 178.580192 -0.000000 0.351670 0.340504 -0.124090 61.103644 203.163469 -0.000000 0.020268 0.297774 -0.360233
0.330000 29.868831 178.286426 -0.000000 0.351666 0.340922 -0.124085 60.661137 203.099027 -0.000000 0.020307 0.297541 -0.360261
0.335000 29.983500 178.019510 -0.000000 0.351664 0.340954 -0.124119 60.290325 202.970700 -0.000000 0.020319 0.297312 -0.360236
0.340000 30.028097 177.822168 -0.000000 0.351622 0.341160 -0.124071 59.760338 202.868462 -0.000000 0.020331 0.297135 -0.360236
0.345000 30.048199 177.666479 -0.000000 0.351594 0.341382 -0.123997 59.219831 202.777380 -0.000000 0.020350 0.296938 -0.360218
0.350000 30.094270 177.512169 -0.000000 0.351604 0.341539 -0.124061 58.807327 202.672775 -0.000000 0.020371 0.296765 -0.360215
0.355000 30.078235 177.341908 -0.000000 0.351604 0.341714 -0.124102 58.465661 202.557730 -0.000000 0.020393 0.296608 -0.360190
0.360000 30.007576 177.132570 -0.000000 0.351584 0.341859 -0.124084 58.177408 202.391289 -0.000000 0.020411 0.296479 -0.360184
0.365000 29.910126 176.869533 -0.000000 0.351584 0.341938 -0.124065 57.912245 202.130509 -0.000000 0.020533 0.296394 -0.360251
0.370000 29.774294 176.550758 -0.000000 0.351604 0.342002 -0.124060 57.650505 201.764131 -0.000000 0.020527 0.296329 -0.360259
0.375000 29.642446 176.171506 -0.000000 0.351608 0.342016 -0.124048 57.508996 201.288786 -0.000000 0.020534 0.296316 -0.360258
0.380000 29.517975 175.745881 -0.000000 0.351621 0.342021 -0.124080 57.541529 200.734553 -0.000000 0.020503 0.296316 -0.360175
0.385000 29.488398 175.281914 -0.000000 0.351651 0.341971 -0.124098 57.800498 200.109617 -0.000000 0.020505 0.296343 -0.360175
0.390000 29.610323 174.787688 -0.000000 0.351761 0.341896 -0.124143 58.241216 199.428181 -0.000000 0.020491 0.296426 -0.360191
0.395000 29.869133 174.270499 -0.000000 0.351783 0.341793 -0.124176 58.775487 198.718856 -0.000000 0.020494 0.296531 -0.360201
0.400000 30.264524 173.725140 -0.000000 0.351744 0.341617 -0.124007 59.412610 197.986993 -0.000000 0.020484 0.296658 -0.360206
0.405000 30.689973 173.162808 -0.000000 0.351772 0.341492 -0.124046 60.077279 197.258198 -0.000000 0.020488 0.296805 -0.360192
0.410000 31.095240 172.592993 -0.000000 0.351820 0.341458 -0.124075 60.731679 196.542429 -0.000000 0.020473 0.296988 -0.360230
0.415000 31.575134 172.011316 -0.000000 0.351856 0.341243 -0.124114 61.438041 195.811659 -0.000000 0.020483 0.297162 -0.360241
0.420000 32.123060 171.436069 -0.000000 0.351887 0.340890 -0.124100 62.082550 195.077329 -0.000000 0.020489 0.297364 -0.360219
0.425000 32.565111 170.910775 -0.000000 0.351908 0.340697 -0.124103 62.384804 194.408573 -0.000000 0.020486 0.297589 -0.360199
0.430000 32.968722 170.425034 -0.000000 0.351938 0.340448 -0.124077 62.462314 193.788105 -0.000000 0.020490 0.297810 -0.360209
0.435000 33.298552 169.983731 -0.000000 0.352019 0.340208 -0.124168 62.407271 193.240906 -0.000000 0.020504 0.298045 -0.360225
0.440000 33.551904 169.585974 -0.000000 0.352044 0.339982 -0.124148 62.297604 192.778784 -0.000000 0.020515 0.298293 -0.360225
0.445000 33.759105 169.226404 -0.000000 0.352049 0.339725 -0.124162 62.123944 192.391890 -0.000000 0.020547 0.298517 -0.360259
0.450000 33.961887 168.898830 -0.000000 0.351957 0.339468 -0.124029 61.834330 192.058829 -0.000000 0.020515 0.298766 -0.360277
0.455000 34.114359 168.613549 -0.000000 0.351958 0.339364 -0.124070 61.336123 191.787941 -0.000000 0.020539 0.299037 -0.360252
0.460000 34.379740 168.339923 -0.000000 0.351971 0.339092 -0.124120 60.876005 191.508985 -0.000000 0.020555 0.299277 -0.360245
0.465000 34.781778 168.080474 -0.000000 0.351964 0.338672 -0.124115 60.588624 191.201239 -0.000000 0.020578 0.299516 -0.360252
0.470000 35.169507 167.872131 -0.000000 0.351984 0.338441 -0.124112 60.375988 190.906634 -0.000000 0.020600 0.299753 -0.360276
